<?xml version="1.0" encoding="UTF-8" standalone="no"?>
<svg
   xmlns:dc="http://purl.org/dc/elements/1.1/"
   xmlns:cc="http://creativecommons.org/ns#"
   xmlns:rdf="http://www.w3.org/1999/02/22-rdf-syntax-ns#"
   xmlns:svg="http://www.w3.org/2000/svg"
   xmlns="http://www.w3.org/2000/svg"
   xmlns:sodipodi="http://sodipodi.sourceforge.net/DTD/sodipodi-0.dtd"
   xmlns:inkscape="http://www.inkscape.org/namespaces/inkscape"
   width="25px"
   height="25px"
   viewBox="0 0 212.00001 212.00001"
   version="1.1"
   id="svg223"
   inkscape:version="1.0.1 (3bc2e813f5, 2020-09-07)"
   sodipodi:docname="sign-40-bw.svg"
   inkscape:export-filename="C:\box\Dropbox\3DWeb\360-javascriptviewer\sign-130.png"
   inkscape:export-xdpi="15.9"
   inkscape:export-ydpi="15.9">
  <defs
     id="defs217" />
  <sodipodi:namedview
     id="base"
     pagecolor="#ffffff"
     bordercolor="#666666"
     borderopacity="1.0"
     inkscape:pageopacity="0.0"
     inkscape:pageshadow="2"
     inkscape:zoom="1.979899"
     inkscape:cx="153.43645"
     inkscape:cy="149.97063"
     inkscape:document-units="mm"
     inkscape:current-layer="layer1"
     inkscape:document-rotation="0"
     showgrid="false"
     inkscape:window-width="1544"
     inkscape:window-height="1030"
     inkscape:window-x="192"
     inkscape:window-y="0"
     inkscape:window-maximized="0"
     scale-x="5.3" />
  <metadata
     id="metadata220">
    <rdf:RDF>
      <cc:Work
         rdf:about="">
        <dc:format>image/svg+xml</dc:format>
        <dc:type
           rdf:resource="http://purl.org/dc/dcmitype/StillImage" />
        <dc:title></dc:title>
      </cc:Work>
    </rdf:RDF>
  </metadata>
  <g
     inkscape:label="Laag 1"
     inkscape:groupmode="layer"
     id="layer1">
    <path
       d="m 105.45536,1.5997935 c 28.67608,0 54.64378,11.6277335 73.43388,30.4178315 18.79393,18.793946 30.42168,44.757799 30.42168,73.433995 0,28.67992 -11.62775,54.64379 -30.42168,73.43772 -18.79383,18.79383 -44.7578,30.42158 -73.43388,30.42158 -28.679931,0 -54.643783,-11.62775 -73.43773,-30.42158 C 13.227532,160.09914 1.5997978,134.13154 1.5997978,105.45162 1.5997978,76.775424 13.223697,50.811571 32.01763,32.017625 50.811577,13.223795 76.775429,1.5997935 105.45536,1.5997935 Z M 172.32871,38.581981 C 155.21628,21.465819 131.56968,10.883937 105.45536,10.883937 c -26.118159,0 -49.761047,10.581882 -66.873373,27.698044 -17.112431,17.112444 -27.698045,40.755318 -27.698045,66.869639 0,26.11816 10.585614,49.76093 27.698045,66.8771 17.112326,17.11243 40.755214,27.69814 66.873373,27.69814 26.11432,0 49.76092,-10.58571 66.87335,-27.69814 17.11233,-17.11617 27.69805,-40.75894 27.69805,-66.8771 0,-26.114321 -10.58572,-49.757195 -27.69805,-66.869639"
       style="fill:#a0a5aa;fill-opacity:1;fill-rule:nonzero;stroke:none;stroke-width:0.376178"
       id="path64" />
    <path
       d="m 179.09994,153.94862 c -2.2571,6.24084 -12.06408,15.89361 -18.33872,20.82157 -38.25368,30.04537 -90.568911,25.0497 -122.356026,-11.51491 -11.244072,-12.93304 -21.758247,-36.72254 -20.550725,-54.04942 8.369989,8.98313 28.187174,15.70925 40.115727,19.1889 39.066233,11.39443 99.458094,11.92109 135.266574,-19.17386 0.13542,4.20199 -3.90481,11.68414 -7.08345,16.0591 -20.15575,27.73942 -56.84822,35.15024 -88.383351,33.08123 -19.489829,-1.27907 -28.055374,-5.46967 -33.765807,-6.26717 7.707889,6.41006 24.312426,9.85964 33.551358,11.40573 l 21.07739,1.77182 c 42.30511,-0.43294 50.50575,-8.06906 60.46703,-11.32299"
       style="fill:#a0a5aa;fill-opacity:1;fill-rule:evenodd;stroke:none;stroke-width:0.376178"
       id="path66" />
    <path
       d="m 32.371228,88.572495 c 25.730664,11.345486 40.728973,14.486595 69.709832,12.620715 17.46975,-1.12477 38.01289,-6.229522 55.55037,-16.156885 22.80388,-14.475276 18.14688,-25.700481 19.45592,-31.339474 21.55883,41.071268 -44.50572,71.052759 -77.0076,70.575039 C 66.411728,124.94474 47.930016,119.78401 17.783029,108.21278 16.98541,96.521062 20.551657,78.167318 25.863396,67.205507 48.11054,21.273982 103.98073,4.6882233 144.7886,25.231368 c 7.10605,3.577559 19.37701,10.491665 22.46916,20.953267 8.6371,29.195175 -48.81295,45.08878 -67.934149,47.537722 -27.028493,3.46464 -41.43232,0.120488 -66.952383,-5.149862"
       style="fill:#a0a5aa;fill-opacity:0.47999999;fill-rule:evenodd;stroke:none;stroke-width:0.376178"
       id="path68" />
  </g>
</svg>
